{"title":"Agneepath - 2012 - 1080p DVDRip - x264 - AC3 5.1 - ESubs - DrC -","uid":7179546,"size":4697499085,"categoryP":"video","categoryS":"hd___movies","magnet":"?xt=urn:btih:342dac559ec7cdffacd5651081d78c8f812c64fd&amp;dn=Agneepath+-+2012+-+1080p+DVDRip+-+x264+-+AC3+5.1+-+ESubs+-+DrC+-&amp;tr=udp%3A%2F%2Ftracker.openbittorrent.com%3A80&amp;tr=udp%3A%2F%2Fopen.demonii.com%3A1337&amp;tr=udp%3A%2F%2Ftracker.coppersurfer.tk%3A6969&amp;tr=udp%3A%2F%2Fexodus.desync.com%3A6969","seeders":0,"leechers":1,"uploader":"DiD.DrC","files":1,"time":1334221689,"description":"Agneepath - 2012 - 1080p DVDRip - x264 - AC3 5.1 - ESubs - DrC - [D!D]\n\nScreenshots :\n &lt;a href=&quot;\nhttp://i.imgur.com/lzkz4.jpg&quot; rel=&quot;nofollow&quot; target=&quot;_NEW&quot;&gt;\nhttp://i.imgur.com/lzkz4.jpg&lt;/a&gt;\n &lt;a href=&quot;\nhttp://i.imgur.com/mBOI8.jpg&quot; rel=&quot;nofollow&quot; target=&quot;_NEW&quot;&gt;\nhttp://i.imgur.com/mBOI8.jpg&lt;/a&gt;\n &lt;a href=&quot;\nhttp://i.imgur.com/UGLZH.jpg&quot; rel=&quot;nofollow&quot; target=&quot;_NEW&quot;&gt;\nhttp://i.imgur.com/UGLZH.jpg&lt;/a&gt;\n &lt;a href=&quot;\nhttp://i.imgur.com/z5JI2.jpg&quot; rel=&quot;nofollow&quot; target=&quot;_NEW&quot;&gt;\nhttp://i.imgur.com/z5JI2.jpg&lt;/a&gt;\n &lt;a href=&quot;\nhttp://i.imgur.com/gPgG6.jpg&quot; rel=&quot;nofollow&quot; target=&quot;_NEW&quot;&gt;\nhttp://i.imgur.com/gPgG6.jpg&lt;/a&gt;\n &lt;a href=&quot;\nhttp://i.imgur.com/bYOMi.jpg&quot; rel=&quot;nofollow&quot; target=&quot;_NEW&quot;&gt;\nhttp://i.imgur.com/bYOMi.jpg&lt;/a&gt;\n\n\nRip Specs :\n\nGeneral\n\nFormat                                   : Matroska\nFormat version                           : Version 2\nFile size                                : 4.37 GiB\nDuration                                 : 2h 54mn\nOverall bit rate mode                    : Variable\nOverall bit rate                         : 3 594 Kbps\n\n\nVideo\nID                                       : 1\nFormat                                   : AVC\nFormat/Info                              : Advanced Video Codec\nFormat profile                           : &lt;a class=&quot;__cf_email__&quot; href=&quot;/cdn-cgi/l/email-protection&quot; data-cfemail=&quot;c088a9a7a8808cf4eef1&quot;&gt;[email&amp;#160;protected]&lt;/a&gt;&lt;script cf-hash='f9e31' type=&quot;text/javascript&quot;&gt;\n/* &lt;![CDATA[ */!function(){try{var t=&quot;currentScript&quot;in document?document.currentScript:function(){for(var t=document.getElementsByTagName(&quot;script&quot;),e=t.length;e--;)if(t[e].getAttribute(&quot;cf-hash&quot;))return t[e]}();if(t&amp;&amp;t.previousSibling){var e,r,n,i,c=t.previousSibling,a=c.getAttribute(&quot;data-cfemail&quot;);if(a){for(e=&quot;&quot;,r=parseInt(a.substr(0,2),16),n=2;a.length-n;n+=2)i=parseInt(a.substr(n,2),16)^r,e+=String.fromCharCode(i);e=document.createTextNode(e),c.parentNode.replaceChild(e,c)}}}catch(u){}}();/* ]]&gt; */&lt;/script&gt;\nFormat settings, CABAC                   : Yes\nFormat settings, ReFrames                : 3 frames\nCodec ID                                 : V_MPEG4/ISO/AVC\nDuration                                 : 2h 54mn\nBit rate mode                            : Variable\nBit rate                                 : 3 143 Kbps\nMaximum bit rate                         : 40.0 Mbps\nWidth                                    : 1 920 pixels\nHeight                                   : 816 pixels\nDisplay aspect ratio                     : 2.35:1\nFrame rate                               : 23.976 fps\nColor space                              : YUV\nChroma subsampling                       : 4:2:0\nBit depth                                : 8 bits\nScan type                                : Progressive\nBits/(Pixel*Frame)                       : 0.084\nStream size                              : 3.74 GiB (86%)\n\n\nAudio\n\nFormat                                   : AC-3\nFormat/Info                              : Audio Coding 3\nMode extension                           : CM (complete main)\nCodec ID                                 : A_AC3\nDuration                                 : 2h 54mn\nBit rate mode                            : Constant\nBit rate                                 : 448 Kbps\nChannel(s)                               : 6 channels\nChannel positions                        : Front: L C R, Side: L R, LFE\nSampling rate                            : 48.0 KHz\nBit depth                                : 16 bits\nCompression mode                         : Lossy\nStream size                              : 558 MiB (12%)\n\n\nText\nFormat                                   : VobSub\nMuxing mode                              : zlib\nCodec ID                                 : S_VOBSUB\nCodec ID/Info                            : The same subtitle format used on DVDs\nLanguage                                 : Hindi\nDefault                                  : Yes\nForced                                   : No","torrent":{"xt":"urn:btih:342dac559ec7cdffacd5651081d78c8f812c64fd","amp;dn":"Agneepath+-+2012+-+1080p+DVDRip+-+x264+-+AC3+5.1+-+ESubs+-+DrC+-","amp;tr":["udp%3A%2F%2Ftracker.openbittorrent.com%3A80","udp%3A%2F%2Fopen.demonii.com%3A1337","udp%3A%2F%2Ftracker.coppersurfer.tk%3A6969","udp%3A%2F%2Fexodus.desync.com%3A6969"],"infoHash":"342dac559ec7cdffacd5651081d78c8f812c64fd","infoHashBuffer":{"type":"Buffer","data":[52,45,172,85,158,199,205,255,172,213,101,16,129,215,140,143,129,44,100,253]},"announce":[],"urlList":[]}}